<?xml version="1.0" encoding="UTF-8"?>
<svg viewBox="0 0 44.257801 59.955704" xmlns="http://www.w3.org/2000/svg" xmlns:xlink="http://www.w3.org/1999/xlink">
 <defs>
  <linearGradient id="a">
   <stop stop-color="#767676" offset="0"/>
   <stop stop-color="#bbb" offset=".66667"/>
   <stop stop-color="#dfdfdf" offset="1"/>
  </linearGradient>
  <linearGradient id="c" x1="281.71" x2="291.08" y1="290.67" y2="303.8" gradientUnits="userSpaceOnUse" xlink:href="#a" spreadMethod="reflect"/>
  <linearGradient id="b" x1="294.39" x2="300.73" y1="276.64" y2="285.41" gradientUnits="userSpaceOnUse" xlink:href="#a" spreadMethod="reflect"/>
 </defs>
 <g transform="translate(-348.29 -262.69)">
  <path d="m391.55 305.36c0 6.8203-3.0586 11.607-9.1757 14.361-2.8829 1.3008-6.0411 1.9395-9.4746 1.916l-23.608-0.14063v-57.814h17.279c4.4649 6e-5 7.9043 0.22857 10.318 0.68555 3.9023 0.72662 6.955 2.1622 9.1582 4.3066 2.121 2.0743 3.3574 5.1153 3.709 9.123-1e-4 2.836-0.627 5.4434-1.8809 7.8223-1.3477 2.5547-3.2403 4.4297-5.6777 5.625 1.8046 0.90237 3.3691 1.9336 4.6933 3.0938 2.7305 2.4024 4.2598 5.502 4.5879 9.2988 0.0469 0.5508 0.0703 1.125 0.0703 1.7226zm-16.98-25.33c-0.375-3.457-2.8008-5.1855-7.2774-5.1856h-3.5332v11.654h3.6739c2.0507 3e-5 3.7324-0.55661 5.0449-1.6699 1.3945-1.1836 2.0918-2.7832 2.0918-4.7988zm1.7226 23.607c-0.0352-2.168-0.7734-3.7031-2.2148-4.6055-1.418-0.86716-3.6328-1.3008-6.6445-1.3008h-3.6739v12.094h4.2539c2.9531 1e-5 5.0801-0.51268 6.3809-1.5381s1.9336-2.5752 1.8984-4.6494z" fill="url(#c)" stroke="url(#b)" stroke-width="2"/>
 </g>
</svg>
